# xmcd CD database file
#
# Track frame offsets:
#	150
#	17788
#	36706
#	52110
#	73395
#	94482
#	112018
#	136665
#	165163
#	188136
#	199264
#	217822
#	229586
#	250587
#	284571
#
# Disc length: 4059 seconds
#
# Revision: 0
# Processed by: cddbd v1.5.1PL0 Copyright (c) Steve Scherf et al.
# Submitted via: CDex 1.51
#
DISCID=e00fd90f
DTITLE=The Original Contemporaries - The Real Stuff (live)
DYEAR=2001
DGENRE=Blues
TTITLE0=Mack The Knife
TTITLE1=Dadlow
TTITLE2=Ain't That Just Like A Woman
TTITLE3=Blues For Karl
TTITLE4=Tribute To Yancey
TTITLE5=Bewitched By You
TTITLE6=45 Germany Blues
TTITLE7=Bangalore
TTITLE8=Blue Cha Cha
TTITLE9=509 Jump
TTITLE10=No Sticks
TTITLE11=Boogie My Opinion
TTITLE12=Florians Mood
TTITLE13=Hunters Boogie
TTITLE14=Boogie Train
EXTD=YEAR: 2001
EXTT0=
EXTT1=
EXTT2=
EXTT3=
EXTT4=
EXTT5=
EXTT6=
EXTT7=
EXTT8=
EXTT9=
EXTT10=
EXTT11=
EXTT12=
EXTT13=
EXTT14=
PLAYORDER=
